<?xml version="1.0" encoding="UTF-8"?>
<svg version="1.1" xmlns="http://www.w3.org/2000/svg" width="226" height="226">
<path d="M0 0 C0.76892578 0.12358887 1.53785156 0.24717773 2.33007812 0.37451172 C16.9935858 2.83133419 39.03319114 7.03319114 50 18 C50.52214775 25.32542585 49.70115797 32.71296543 49 40 C49.82757813 40.24492188 50.65515625 40.48984375 51.5078125 40.7421875 C55.53288756 42.19193489 59.13227714 44.0723051 62.875 46.125 C63.56335938 46.49753906 64.25171875 46.87007812 64.9609375 47.25390625 C66.64294798 48.16499526 68.32180436 49.08190315 70 50 C72.42626959 89.49427728 53.27091109 133.03056147 30 164 C29.53464844 164.62616211 29.06929687 165.25232422 28.58984375 165.89746094 C14.69836446 184.37842759 -2.06882465 200.75320364 -21 214 C-21.6997998 214.50192871 -22.39959961 215.00385742 -23.12060547 215.52099609 C-25.17261536 216.99035397 -27.23810873 218.4374565 -29.3125 219.875 C-29.92915527 220.31094482 -30.54581055 220.74688965 -31.18115234 221.19604492 C-35.3427629 223.98967014 -35.3427629 223.98967014 -37.98828125 224.03125 C-41.09565478 222.43834396 -43.99064659 220.58298091 -46.875 218.625 C-47.53048828 218.18381836 -48.18597656 217.74263672 -48.86132812 217.28808594 C-53.53434916 214.10030601 -58.05425861 210.74669793 -62.5 207.25 C-63.08797363 206.78827393 -63.67594727 206.32654785 -64.28173828 205.85083008 C-67.26845917 203.47438698 -70.04424178 200.99929263 -72.75 198.3125 C-76.75064398 195.46588794 -78.89209369 195.68076062 -83.63671875 195.96875 C-88.28582256 196.03022575 -91.05853675 193.89057335 -94.3125 190.8125 C-96.45344987 187.24425022 -97.03918475 184.13790972 -97 180 C-96.71640625 179.2575 -96.4328125 178.515 -96.140625 177.75 C-95.90444508 173.13137049 -99.09304633 170.42408543 -101.9375 167 C-103.15784225 165.46426276 -104.37398502 163.92517927 -105.5859375 162.3828125 C-106.17858398 161.63032227 -106.77123047 160.87783203 -107.38183594 160.10253906 C-111.04885497 155.33784867 -114.0837632 150.2456307 -117 145 C-117.4522998 144.19353027 -117.90459961 143.38706055 -118.37060547 142.55615234 C-132.57132585 116.9967041 -142.49258123 89.31467531 -145 60 C-145.12890625 59.02675781 -145.2578125 58.05351563 -145.390625 57.05078125 C-145.61714353 54.46469469 -145.68624391 52.50162674 -145 50 C-142.75816427 47.46232085 -140.06592961 46.34502377 -137 45 C-135.86949219 44.46246094 -134.73898438 43.92492188 -133.57421875 43.37109375 C-130.39866077 41.87528447 -127.20856404 40.42331118 -124 39 C-124.05647705 38.38479492 -124.1129541 37.76958984 -124.17114258 37.13574219 C-124.41220321 34.34207339 -124.61272063 31.54691116 -124.8125 28.75 C-124.90208984 27.78191406 -124.99167969 26.81382813 -125.08398438 25.81640625 C-125.55115506 18.68590639 -125.55115506 18.68590639 -123.05078125 15.57421875 C-109.9716031 8.82529584 -96.40481513 3.99350971 -82 1 C-80.84612793 0.75443359 -80.84612793 0.75443359 -79.66894531 0.50390625 C-54.61908326 -4.53731339 -25.18683471 -4.18820422 0 0 Z M-115 23 C-114.67 26.96 -114.34 30.92 -114 35 C-110.75723634 34.35144727 -107.84376598 33.70312999 -104.7265625 32.73046875 C-91.62741193 28.7501427 -78.54923718 25.95684652 -65 24 C-64.32340332 23.8954248 -63.64680664 23.79084961 -62.94970703 23.68310547 C-32.46741886 19.56427562 -1.37472865 23.97186813 28 32 C29.03833984 32.28230469 30.07667969 32.56460938 31.14648438 32.85546875 C33.76490296 33.568214 36.38272276 34.28307705 39 35 C40.26237731 32.47524538 40.09856404 30.68799534 40.0625 27.875 C40.05347656 26.96492188 40.04445312 26.05484375 40.03515625 25.1171875 C40.02355469 24.41851563 40.01195312 23.71984375 40 23 C20.33951837 11.83600792 -2.44810747 7.8981074 -24.80859375 7.796875 C-25.81479263 7.79117493 -26.82099152 7.78547485 -27.85768127 7.77960205 C-29.97794565 7.77021196 -32.09822423 7.76364212 -34.21850586 7.75976562 C-37.39789605 7.75012015 -40.57662191 7.71906305 -43.75585938 7.6875 C-69.11032029 7.55556326 -92.05606759 12.15320907 -115 23 Z M-135 56 C-135.2608209 89.28074697 -119.84531793 125.26660679 -101.25634766 152.17382812 C-100.38530213 153.43994172 -99.53190862 154.71831132 -98.69287109 156.00585938 C-93.65533871 164.14893124 -93.65533871 164.14893124 -85.8125 168.984375 C-82.67265149 169.25622678 -82.67265149 169.25622678 -79.7265625 168.98046875 C-76.30896231 169.00495013 -74.72219686 169.99243859 -72 172 C-69.11462241 175.97983116 -68.990382 178.61118577 -69.4375 183.3125 C-69.51329707 186.82285171 -69.39402766 188.45729987 -67.3125 191.32421875 C-64.65888632 193.75524312 -61.90766607 195.87790142 -59 198 C-57.74620917 198.95286767 -56.49366188 199.90737324 -55.2421875 200.86328125 C-49.3432506 205.31144401 -43.47841426 209.43229818 -37 213 C-7.9914315 194.45789303 17.00234026 170.13643312 34 140 C34.41604492 139.27280762 34.83208984 138.54561523 35.26074219 137.79638672 C49.61455042 112.46279357 58.45272259 85.00854728 61 56 C59.04414675 54.99515796 57.08523763 53.99626195 55.125 53 C54.03445312 52.443125 52.94390625 51.88625 51.8203125 51.3125 C49.21624918 49.85935906 49.21624918 49.85935906 47 50 C46.83918945 50.81041748 46.67837891 51.62083496 46.51269531 52.45581055 C45.89923751 55.53031929 45.27966736 58.60352191 44.65625 61.67602539 C44.26106554 63.63271097 43.87262232 65.59075427 43.484375 67.54882812 C41.98026058 74.93779019 40.17878943 82.06098062 37.76074219 89.20629883 C36.99923999 92.002791 36.70582563 94.12211514 37 97 C37.99 98.485 37.99 98.485 39 100 C39.69513906 105.14887885 39.54121067 109.68226968 37.5625 114.5 C34.86975768 117.12706568 34.12728774 117.32668254 30.65625 118.09765625 C26.80062249 119.31857262 25.20712421 120.501066 23.21484375 124.02734375 C22.42821733 125.65101924 21.67008864 127.2887377 20.9375 128.9375 C20.09592963 130.6716006 19.24956601 132.40338316 18.3984375 134.1328125 C17.99206055 134.97231445 17.58568359 135.81181641 17.16699219 136.67675781 C11.29084293 148.37496626 2.21469196 160.09523414 -7.1875 169.25 C-8.115625 170.1575 -9.04375 171.065 -10 172 C-10 172.66 -10 173.32 -10 174 C-10.60199219 174.26941406 -11.20398438 174.53882813 -11.82421875 174.81640625 C-14.01912064 176.01040135 -15.16897551 177.08570519 -16.8125 178.9375 C-20.47245639 182.68516776 -24.46900632 185.88964461 -28.625 189.0625 C-29.27057861 189.57611084 -29.91615723 190.08972168 -30.58129883 190.61889648 C-32.3522862 191.94228921 -33.98874059 193.0819748 -36 194 C-52.60502845 191.17044358 -71.94220083 165.58103745 -81 152.9375 C-87.02849752 144.32563549 -92.16539803 135.32447579 -97 126 C-97.51723633 125.02836914 -97.51723633 125.02836914 -98.04492188 124.03710938 C-107.77821836 105.61404723 -113.43218182 84.98846725 -119 65 C-118.23373291 64.70125977 -117.46746582 64.40251953 -116.67797852 64.09472656 C-113.6326492 62.84983125 -110.83295172 61.3120663 -107.9375 59.75 C-98.51751576 54.85625049 -88.2076272 52.00890711 -77.92626953 49.49243164 C-74.23240815 48.55723443 -73.16214943 48.21169509 -70.75 45.0625 C-70.1725 44.051875 -69.595 43.04125 -69 42 C-66.59483621 39.21001001 -64.69301175 38.19671184 -60.94921875 37.76171875 C-55.42735507 37.5805177 -52.35892838 38.27896358 -48 42 C-47.01 43.485 -47.01 43.485 -46 45 C-43.83049711 45.46035457 -43.83049711 45.46035457 -41.29296875 45.40625 C-40.32399658 45.42606934 -39.35502441 45.44588867 -38.35668945 45.46630859 C-36.78794067 45.48298584 -36.78794067 45.48298584 -35.1875 45.5 C-19.15409569 45.91632705 -3.52956688 47.93753445 12 52 C12.34019152 50.60582227 12.67181779 49.20955342 13 47.8125 C13.185625 47.03519531 13.37125 46.25789063 13.5625 45.45703125 C14.01422743 42.92009775 14.07307143 40.57120097 14 38 C3.40999728 35.09901521 -7.03860291 32.91982081 -18 32 C-18.80115234 31.93151855 -19.60230469 31.86303711 -20.42773438 31.79248047 C-52.22574597 29.27220262 -110.51840209 31.51840209 -135 56 Z M24 41 C23.85304687 41.66 23.70609375 42.32 23.5546875 43 C22.72288895 46.67138668 21.86348175 50.33597449 21 54 C20.79600586 54.87414551 20.59201172 55.74829102 20.38183594 56.64892578 C10.82924274 97.29958985 -5.44215231 133.88205089 -36 163 C-54.03660992 156.84115759 -68.12502724 128.49688645 -76.09790039 112.34106445 C-83.47921883 96.81806397 -88.56800654 80.56961191 -93 64 C-94.43742377 64.46103911 -95.8733333 64.92680099 -97.30859375 65.39453125 C-98.10837646 65.65339111 -98.90815918 65.91225098 -99.73217773 66.17895508 C-102.38638591 67.13988759 -104.66580356 68.41877015 -107 70 C-103.87485681 103.83944113 -81.96160425 139.8617918 -59 164 C-58.24879883 164.79204834 -58.24879883 164.79204834 -57.48242188 165.60009766 C-51.16304171 172.22175865 -45.0400178 178.45022249 -37 183 C-30.34363636 177.99968819 -24.09618676 172.66785992 -18 167 C-17.35546875 166.42121094 -16.7109375 165.84242188 -16.046875 165.24609375 C-1.93010851 151.98938236 8.84162881 134.42365706 17 117 C16.01 115.8553125 16.01 115.8553125 15 114.6875 C11.97501111 110.1661643 12.36161076 105.2268119 13 100 C14.43450883 95.94962211 15.53578523 95.24070396 19.375 93.25 C22.29352579 92.2436118 24.98208464 91.56002553 28 91 C35.05526805 68.36190551 35.05526805 68.36190551 38 45 C36.0429132 44.32968281 34.08428887 43.66385317 32.125 43 C31.03445312 42.62875 29.94390625 42.2575 28.8203125 41.875 C26.17379146 40.901228 26.17379146 40.901228 24 41 Z M-65 49 C-65.75 51.5 -65.75 51.5 -65 54 C-62.91170257 56.50397498 -62.91170257 56.50397498 -60 58 C-56.74015326 58 -55.50307043 57.4695324 -53.125 55.25 C-51.78834787 53.03631565 -51.78834787 53.03631565 -52.125 50.4375 C-53.07762554 47.78375743 -53.66940198 46.58147723 -56 45 C-60.43815895 44.20340737 -62.38163641 45.41187212 -65 49 Z M-45 55 C-45.97315188 56.75167339 -46.94367461 58.50513438 -47.87890625 60.27734375 C-49.73034694 63.12224042 -51.84293477 63.94764492 -55 65 C-60.23548855 65.5609452 -63.55601027 64.82799347 -68 62 C-69.03524819 60.69384574 -70.04196141 59.36379611 -71 58 C-72.98073365 58.280828 -74.95958448 58.57496614 -76.9375 58.875 C-78.03964844 59.03742187 -79.14179687 59.19984375 -80.27734375 59.3671875 C-81.62505859 59.68042969 -81.62505859 59.68042969 -83 60 C-84.30057586 62.60115172 -83.78238352 63.46367192 -82.99609375 66.2265625 C-82.7532666 67.08548096 -82.51043945 67.94439941 -82.26025391 68.8293457 C-81.98874512 69.75191162 -81.71723633 70.67447754 -81.4375 71.625 C-81.16083496 72.57270264 -80.88416992 73.52040527 -80.59912109 74.49682617 C-76.37498912 88.71583422 -70.98932495 101.91750786 -64 115 C-63.45730469 116.02609375 -62.91460937 117.0521875 -62.35546875 118.109375 C-58.99258151 124.16420848 -55.12093002 129.7583141 -51 135.3125 C-50.51370117 135.97056641 -50.02740234 136.62863281 -49.52636719 137.30664062 C-46.03005072 141.92019231 -42.1842068 146.00380397 -38 150 C-33.83486083 148.11099014 -31.29423264 145.31606195 -28.375 141.875 C-27.84938477 141.25681396 -27.32376953 140.63862793 -26.78222656 140.00170898 C-21.08084382 133.12787835 -16.4529109 125.72247705 -12 118 C-11.64454102 117.39607422 -11.28908203 116.79214844 -10.92285156 116.16992188 C-1.07157278 99.31637264 4.70049344 80.68879017 10 62 C6.01220969 59.87818833 1.95740202 58.92269651 -2.4375 58 C-3.26282227 57.82629883 -4.08814453 57.65259766 -4.93847656 57.47363281 C-25.26565107 52.77390429 -25.26565107 52.77390429 -45 55 Z M21.6875 100.5625 C19.53756671 103.6679592 19.36956371 105.29618677 20 109 C21.51894806 111.09764165 21.51894806 111.09764165 24 112 C27.67293796 111.77962372 29.36966546 111.63033454 32 109 C32.44462008 104.87169954 32.44462008 104.87169954 30.8125 101.1875 C27.39356451 98.94750778 25.19462641 98.19281999 21.6875 100.5625 Z M-87.9375 177.625 C-89.37504343 180.83833238 -89.01373739 182.66914856 -88 186 C-85.10538099 188.36139302 -85.10538099 188.36139302 -81.4375 187.8125 C-77.74174248 187.35160238 -77.74174248 187.35160238 -76 184 C-76.08221709 180.92334973 -76.08221709 180.92334973 -77 178 C-80.81879555 175.4541363 -84.18277421 174.47587515 -87.9375 177.625 Z " fill="#2D9DD8" transform="translate(150,2)"/>
<path d="M0 0 C0 1.65 0 3.3 0 5 C0.82757813 5.24492188 1.65515625 5.48984375 2.5078125 5.7421875 C6.53288756 7.19193489 10.13227714 9.0723051 13.875 11.125 C14.56335938 11.49753906 15.25171875 11.87007812 15.9609375 12.25390625 C17.64294798 13.16499526 19.32180436 14.08190315 21 15 C23.42626959 54.49427728 4.27091109 98.03056147 -19 129 C-19.46535156 129.62616211 -19.93070313 130.25232422 -20.41015625 130.89746094 C-34.30163554 149.37842759 -51.06882465 165.75320364 -70 179 C-70.6997998 179.50192871 -71.39959961 180.00385742 -72.12060547 180.52099609 C-74.17261536 181.99035397 -76.23810873 183.4374565 -78.3125 184.875 C-78.92915527 185.31094482 -79.54581055 185.74688965 -80.18115234 186.19604492 C-84.3427629 188.98967014 -84.3427629 188.98967014 -86.98828125 189.03125 C-90.09565478 187.43834396 -92.99064659 185.58298091 -95.875 183.625 C-96.53048828 183.18381836 -97.18597656 182.74263672 -97.86132812 182.28808594 C-102.53434916 179.10030601 -107.05425861 175.74669793 -111.5 172.25 C-112.08797363 171.78827393 -112.67594727 171.32654785 -113.28173828 170.85083008 C-116.26845917 168.47438698 -119.04424178 165.99929263 -121.75 163.3125 C-125.75064398 160.46588794 -127.89209369 160.68076062 -132.63671875 160.96875 C-137.28582256 161.03022575 -140.05853675 158.89057335 -143.3125 155.8125 C-145.45344987 152.24425022 -146.03918475 149.13790972 -146 145 C-145.57460937 143.88625 -145.57460937 143.88625 -145.140625 142.75 C-144.90449041 138.132257 -148.09200558 135.42266291 -150.9375 132 C-157.48714747 123.80873479 -163.42683369 115.48425132 -168 106 C-161.25 102.125 -161.25 102.125 -159 101 C-158.45472656 101.94359375 -157.90945312 102.8871875 -157.34765625 103.859375 C-152.37993265 112.35340441 -147.06720887 120.23933323 -141 128 C-140.53980469 128.75925781 -140.07960938 129.51851562 -139.60546875 130.30078125 C-138.06944208 132.26634846 -138.06944208 132.26634846 -135.29296875 132.46875 C-133.75576172 132.48421875 -133.75576172 132.48421875 -132.1875 132.5 C-127.00566059 132.78162171 -123.89636461 133.30344896 -120 137 C-117.05415934 141.02598223 -117.04277891 143.4083562 -117.6875 148.125 C-117.79667787 152.36569825 -117.25123007 153.70438981 -114.45703125 156.9921875 C-110.8537346 160.28013566 -106.96678211 163.16892051 -103 166 C-102.26297852 166.52787109 -101.52595703 167.05574219 -100.76660156 167.59960938 C-96.2326036 170.81829708 -91.64109476 173.93808294 -87 177 C-66.43460744 166.63697016 -48.13522386 148.88586369 -34 131 C-33.38439209 130.23163818 -33.38439209 130.23163818 -32.75634766 129.44775391 C-26.52582255 121.66259642 -20.92424304 113.69137596 -16 105 C-15.58105469 104.26845703 -15.16210938 103.53691406 -14.73046875 102.78320312 C-0.3809183 77.4543857 8.45329938 50.00197868 11 21 C6.71 19.02 2.42 17.04 -2 15 C-2.10441406 16.55074219 -2.20882812 18.10148437 -2.31640625 19.69921875 C-2.91245454 26.23898938 -4.34471673 32.45282579 -5.9375 38.8125 C-6.20240234 39.90498047 -6.46730469 40.99746094 -6.74023438 42.12304688 C-7.97660014 47.16361498 -9.31728903 52.08744096 -11 57 C-11.35715143 60.83937792 -11.21224819 61.68162771 -9 65 C-8.29477073 70.22361682 -8.39542681 74.69784237 -10.625 79.5 C-13.26811128 82.28222239 -15.41427955 83.65535483 -19 85 C-20.32 85 -21.64 85 -23 85 C-23.23976562 85.81726563 -23.47953125 86.63453125 -23.7265625 87.4765625 C-30.96521036 107.50496853 -45.95535403 125.33147018 -61 140 C-61.58523437 140.63035156 -62.17046875 141.26070312 -62.7734375 141.91015625 C-67.41921949 146.80636144 -72.3956675 151.09653469 -77.75 155.1875 C-78.3879248 155.69361816 -79.02584961 156.19973633 -79.68310547 156.72119141 C-81.546875 158.10546875 -81.546875 158.10546875 -85 160 C-101.75889681 157.08540925 -121.19175266 131.46513061 -130.75 118.5 C-131.41443115 117.6186438 -131.41443115 117.6186438 -132.09228516 116.71948242 C-133.70532584 114.45880624 -134.93905012 112.64700645 -135.203125 109.84375 C-133.20174886 106.77670605 -130.22896782 105.64383816 -127 104 C-126.40574219 104.87140625 -125.81148437 105.7428125 -125.19921875 106.640625 C-119.37414511 115.05990916 -113.1131424 122.64867774 -106 130 C-105.53416504 130.49161621 -105.06833008 130.98323242 -104.58837891 131.48974609 C-98.89458908 137.49843615 -93.18314511 142.7965299 -86 147 C-73.96529431 137.95943606 -62.73942905 128.01993255 -53.625 116 C-53.06554687 115.26450928 -52.50609375 114.52901855 -51.9296875 113.77124023 C-44.49250507 103.83616239 -38.26449244 93.24326276 -33 82 C-33.99 80.8553125 -33.99 80.8553125 -35 79.6875 C-38.01424162 75.15537243 -37.75524511 70.23221353 -37 65 C-35.08389174 60.7079175 -33.68444395 59.37333306 -29.5625 57.125 C-26.41582875 56.13131434 -24.25057574 55.70449311 -21 56 C-20.89429688 55.0821875 -20.78859375 54.164375 -20.6796875 53.21875 C-19.91622178 47.88252647 -18.47464028 42.71195228 -17.125 37.5 C-14.79779553 28.37479899 -12.69254026 19.26443089 -11 10 C-11.99 9.505 -11.99 9.505 -13 9 C-11.02297434 7.49710267 -9.0435417 5.99758658 -7.0625 4.5 C-6.49853516 4.07074219 -5.93457031 3.64148437 -5.35351562 3.19921875 C-1.11328125 0 -1.11328125 0 0 0 Z M-27.3125 65.5625 C-29.46243329 68.6679592 -29.63043629 70.29618677 -29 74 C-27.48105194 76.09764165 -27.48105194 76.09764165 -25 77 C-21.32706204 76.77962372 -19.63033454 76.63033454 -17 74 C-16.55537992 69.87169954 -16.55537992 69.87169954 -18.1875 66.1875 C-21.60643549 63.94750778 -23.80537359 63.19281999 -27.3125 65.5625 Z M-136.9375 142.625 C-138.37504343 145.83833238 -138.01373739 147.66914856 -137 151 C-134.10538099 153.36139302 -134.10538099 153.36139302 -130.4375 152.8125 C-126.74174248 152.35160238 -126.74174248 152.35160238 -125 149 C-125.08221709 145.92334973 -125.08221709 145.92334973 -126 143 C-129.81879555 140.4541363 -133.18277421 139.47587515 -136.9375 142.625 Z " fill="#4EBFEE" transform="translate(199,37)"/>
<path d="M0 0 C-0.77239014 0.76779785 -1.54478027 1.5355957 -2.34057617 2.32666016 C-4.11253536 4.10789151 -5.84996315 5.92415595 -7.55078125 7.7734375 C-12.02902899 11.42047912 -17.69579684 10.65196677 -23.1875 10.625 C-44.9409793 11.00632142 -65.52571527 14.74271871 -85.375 23.86328125 C-88 25 -88 25 -90 25 C-89.835 25.495 -89.67 25.99 -89.5 26.5 C-88.7947735 30.02613252 -88.97076385 33.4039535 -89 37 C-87.9790625 36.62488281 -86.958125 36.24976563 -85.90625 35.86328125 C-77.01230049 32.6953451 -68.12047496 30.17810983 -58.875 28.25 C-57.93591797 28.05188721 -56.99683594 27.85377441 -56.02929688 27.6496582 C-41.63735033 24.76313089 -27.57664637 23.6183151 -12.9375 23.6875 C-12.13151367 23.68932281 -11.32552734 23.69114563 -10.49511719 23.69302368 C10.37121745 23.77211748 29.81704211 26.73035258 50 32 C47.99879474 36.4547582 45.62247979 39.2086213 41 41 C37.07617789 40.93779025 33.46819664 39.93361522 29.6875 38.9375 C-18.08839654 27.92883892 -65.49853565 36.78765229 -109 58 C-108.18563077 82.96041691 -100.51117648 107.32858113 -89.06201172 129.40185547 C-88.44156982 130.61832764 -88.44156982 130.61832764 -87.80859375 131.859375 C-87.43532959 132.56545898 -87.06206543 133.27154297 -86.67749023 133.99902344 C-85.85011563 136.4426855 -86.06756902 137.61924513 -87 140 C-88.8125 141.8125 -88.8125 141.8125 -91 143 C-92.97949219 142.84204102 -92.97949219 142.84204102 -95 142 C-96.33691406 140.15600586 -96.33691406 140.15600586 -97.515625 137.71484375 C-97.95825684 136.80420166 -98.40088867 135.89355957 -98.85693359 134.95532227 C-99.31664551 133.95944092 -99.77635742 132.96355957 -100.25 131.9375 C-100.73162598 130.90616943 -101.21325195 129.87483887 -101.70947266 128.81225586 C-111.3462525 107.66478898 -117.74143592 85.15827545 -120 62 C-120.18755859 60.56914063 -120.18755859 60.56914063 -120.37890625 59.109375 C-120.57652815 56.56972333 -120.57782556 54.48640091 -120 52 C-117.78362006 49.4446443 -115.06105406 48.34288487 -112 47 C-110.86949219 46.46246094 -109.73898438 45.92492188 -108.57421875 45.37109375 C-105.39866077 43.87528447 -102.20856404 42.42331118 -99 41 C-99.05647705 40.38479492 -99.1129541 39.76958984 -99.17114258 39.13574219 C-99.41220321 36.34207339 -99.61272063 33.54691116 -99.8125 30.75 C-99.90208984 29.78191406 -99.99167969 28.81382813 -100.08398438 27.81640625 C-100.55115506 20.68590639 -100.55115506 20.68590639 -98.05078125 17.57421875 C-66.66131382 1.37709279 -34.63722009 -0.57581056 0 0 Z " fill="#1979BF" transform="translate(125,0)"/>
<path d="M0 0 C4.17033056 2.12307738 6.10477268 3.80405485 8 8 C8.92558716 7.97643433 8.92558716 7.97643433 9.86987305 7.95239258 C27.32886452 7.57000823 44.06654138 8.5336061 61 13 C59.49720469 16.82529716 57.3920771 18.72582101 54 21 C51.40625 21.2421875 51.40625 21.2421875 48.5 20.875 C46.80230469 20.68744141 46.80230469 20.68744141 45.0703125 20.49609375 C44.43383789 20.4172998 43.79736328 20.33850586 43.14160156 20.25732422 C38.89354955 19.74689936 34.63350366 19.34969818 30.375 18.9375 C29.46854736 18.84791016 28.56209473 18.75832031 27.62817383 18.66601562 C21.40492855 18.07165118 15.25416631 17.73635833 9 18 C8.88269531 18.60585938 8.76539062 19.21171875 8.64453125 19.8359375 C7.4888089 23.71636286 4.35920399 26.04855721 1.125 28.3125 C-3.31964121 29.75047216 -6.95871094 29.42052058 -11.25 27.6875 C-13.57161721 26.26287126 -15.33004046 25.1338372 -17 23 C-17 22.34 -17 21.68 -17 21 C-20.96 21.99 -24.92 22.98 -29 24 C-26.18087831 35.60127035 -22.82427342 46.77495946 -18.55078125 57.92578125 C-18.28700684 58.62509766 -18.02323242 59.32441406 -17.75146484 60.04492188 C-17.0732344 61.80946683 -16.34978303 63.55646839 -15.62109375 65.30078125 C-15 68 -15 68 -16.046875 70.1171875 C-16.60890625 70.69726562 -17.1709375 71.27734375 -17.75 71.875 C-18.57757813 72.76832031 -18.57757813 72.76832031 -19.421875 73.6796875 C-21 75 -21 75 -23 75 C-30.26139702 59.57413881 -36.54051997 43.97041218 -39 27 C-45.435 29.97 -45.435 29.97 -52 33 C-48.8120839 55.31541272 -38.95515335 78.7962711 -26.43359375 97.56640625 C-25 100 -25 100 -25 103 C-26.75 104.38671875 -26.75 104.38671875 -29 105.6875 C-29.7425 106.12449219 -30.485 106.56148438 -31.25 107.01171875 C-31.8275 107.33785156 -32.405 107.66398437 -33 108 C-43.7064427 92.01702967 -51.43281072 74.6382121 -57.5 56.4375 C-57.90911621 55.21426025 -58.31823242 53.99102051 -58.73974609 52.73071289 C-61.37937917 44.56265618 -63.35819297 36.42230913 -65 28 C-51.72069026 19.48225447 -37.30169368 14.36361802 -21.90625 11.1171875 C-18.32330775 9.73987368 -17.63677552 8.38896469 -16 5 C-11.37642188 -0.20152539 -6.71344203 -0.83631616 0 0 Z M-11 12 C-11.75 14.5 -11.75 14.5 -11 17 C-8.91170257 19.50397498 -8.91170257 19.50397498 -6 21 C-2.74015326 21 -1.50307043 20.4695324 0.875 18.25 C2.21165213 16.03631565 2.21165213 16.03631565 1.875 13.4375 C0.92237446 10.78375743 0.33059802 9.58147723 -2 8 C-6.43815895 7.20340737 -8.38163641 8.41187212 -11 12 Z " fill="#2488CA" transform="translate(96,39)"/>
<path d="M0 0 C1 2 1 2 0.5378418 3.83740234 C0.26109619 4.57941895 -0.01564941 5.32143555 -0.30078125 6.0859375 C-0.61337891 6.92455322 -0.92597656 7.76316895 -1.24804688 8.62719727 C-1.59931641 9.53397217 -1.95058594 10.44074707 -2.3125 11.375 C-2.85293945 12.77673462 -2.85293945 12.77673462 -3.40429688 14.20678711 C-9.06975696 28.56950054 -15.78470915 42.55935735 -25 55 C-25.39767578 55.54285645 -25.79535156 56.08571289 -26.20507812 56.64501953 C-33.04076372 65.90972164 -40.68987303 74.04658754 -49 82 C-64.90395173 76.71741533 -76.93701444 53.63935721 -85 40 C-85.38615479 39.35474365 -85.77230957 38.7094873 -86.17016602 38.04467773 C-88.99249156 33.24777858 -88.99249156 33.24777858 -89.0625 30.9375 C-87.41918426 27.94086541 -85.26610571 25.55663209 -83 23 C-79.66459921 25.79169909 -77.95174466 29.54600458 -75.9375 33.3125 C-69.66795919 44.71425583 -62.03198324 57.52941493 -52 66 C-47.87723813 66.45619781 -47.87723813 66.45619781 -45.3359375 63.5 C-44.33339986 62.34667556 -43.34741095 61.17883668 -42.375 60 C-41.84938477 59.37279053 -41.32376953 58.74558105 -40.78222656 58.09936523 C-31.04678225 46.19738798 -22.94777135 32.22111384 -16.74609375 18.15625 C-13.1688904 10.07949818 -7.29186254 4.86124169 0 0 Z " fill="#43B3E7" transform="translate(163,84)"/>
<path d="M0 0 C-0.77239014 0.76779785 -1.54478027 1.5355957 -2.34057617 2.32666016 C-4.11253536 4.10789151 -5.84996315 5.92415595 -7.55078125 7.7734375 C-12.02902899 11.42047912 -17.69579684 10.65196677 -23.1875 10.625 C-44.9409793 11.00632142 -65.52571527 14.74271871 -85.375 23.86328125 C-88 25 -88 25 -90 25 C-89.835 25.515625 -89.67 26.03125 -89.5 26.5625 C-88.80851389 29.93349478 -88.57768407 32.56114169 -89 36 C-90.80905702 38.28994559 -92.48597348 39.37327696 -95 41 C-95.99 41 -96.98 41 -98 41 C-99.75982195 37.48035611 -99.5993938 33.50645403 -99.875 29.625 C-99.96007812 28.76132812 -100.04515625 27.89765625 -100.1328125 27.0078125 C-100.56258237 20.67847434 -100.56258237 20.67847434 -98.046875 17.64453125 C-67.11632467 0.94996498 -34.32990325 -0.57070172 0 0 Z M-99 42 C-99 42.66 -99 43.32 -99 44 C-100.3894043 45.28100586 -100.3894043 45.28100586 -102.32421875 46.71484375 C-103.02353516 47.23626953 -103.72285156 47.75769531 -104.44335938 48.29492188 C-105.18392578 48.83697266 -105.92449219 49.37902344 -106.6875 49.9375 C-107.40873047 50.47568359 -108.12996094 51.01386719 -108.87304688 51.56835938 C-112.48319138 54.24217417 -116.08410337 56.78330901 -120 59 C-120.5 55.8125 -120.5 55.8125 -120 52 C-117.69217041 49.67924139 -114.93087042 48.40370861 -112 47 C-111.03964844 46.53207031 -110.07929687 46.06414063 -109.08984375 45.58203125 C-101.47426471 42 -101.47426471 42 -99 42 Z " fill="#1273BB" transform="translate(125,0)"/>
<path d="M0 0 C0 1.65 0 3.3 0 5 C0.82757813 5.24492188 1.65515625 5.48984375 2.5078125 5.7421875 C6.53288756 7.19193489 10.13227714 9.0723051 13.875 11.125 C14.56335938 11.49753906 15.25171875 11.87007812 15.9609375 12.25390625 C17.64294798 13.16499526 19.32180436 14.08190315 21 15 C21.64117936 38.75925742 21.64117936 38.75925742 17.00390625 44.44921875 C14.75125346 46.45034381 12.42552088 48.21604181 10 50 C8.64487898 51.31118365 7.30473396 52.63866799 6 54 C6.11593506 53.35562988 6.23187012 52.71125977 6.35131836 52.04736328 C6.8839805 49.07393196 7.41076788 46.09948729 7.9375 43.125 C8.11990234 42.11179688 8.30230469 41.09859375 8.49023438 40.0546875 C9.60876954 33.70954257 10.43849432 27.41889651 11 21 C6.71 19.02 2.42 17.04 -2 15 C-2.12375 16.629375 -2.2475 18.25875 -2.375 19.9375 C-2.57714616 21.95896162 -2.78542132 23.97982027 -3 26 C-3.06445312 26.80953125 -3.12890625 27.6190625 -3.1953125 28.453125 C-4.03977028 34.64581539 -7.0173369 37.51293946 -11.7109375 41.46875 C-13.92348053 42.94881292 -15.4453166 43.44378705 -18 44 C-17.74605469 42.80246094 -17.49210938 41.60492188 -17.23046875 40.37109375 C-15.0911243 30.25925074 -13.00076209 20.14022605 -11 10 C-11.66 9.67 -12.32 9.34 -13 9 C-11.02297434 7.49710267 -9.0435417 5.99758658 -7.0625 4.5 C-6.49853516 4.07074219 -5.93457031 3.64148437 -5.35351562 3.19921875 C-1.11328125 0 -1.11328125 0 0 0 Z " fill="#36A7DF" transform="translate(199,37)"/>
<path d="M0 0 C1.16535278 0.09643799 1.16535278 0.09643799 2.35424805 0.19482422 C20.82877658 1.92230312 40.38235403 5.44300132 57 14.0625 C57 16.0625 57 16.0625 55.6796875 17.38671875 C55.08414063 17.83660156 54.48859375 18.28648438 53.875 18.75 C53.29492188 19.20761719 52.71484375 19.66523438 52.1171875 20.13671875 C47.24264131 22.2682085 41.82542828 19.38459117 37.125 17.6875 C22.30540925 12.54415387 6.96578406 11.13487171 -8.625 10.5 C-9.62917969 10.45681641 -10.63335937 10.41363281 -11.66796875 10.36914062 C-14.11188383 10.26440141 -16.55587617 10.16222744 -19 10.0625 C-17.35476027 8.36887087 -15.68921219 6.71132041 -14 5.0625 C-13.071875 4.13566406 -12.14375 3.20882813 -11.1875 2.25390625 C-7.27141101 -0.43840493 -4.54023994 -0.46823279 0 0 Z " fill="#2486C8" transform="translate(133,-0.0625)"/>
<path d="M0 0 C4.96681789 1.15803222 9.90924505 2.3991308 14.84375 3.6875 C12.84254474 8.1422582 10.46622979 10.8961213 5.84375 12.6875 C1.9201908 12.62529442 -1.68869149 11.62285987 -5.46875 10.625 C-17.827294 7.72817795 -29.94171544 6.55955259 -42.59863281 5.90527344 C-45.17861788 5.68559544 -47.62934317 5.24385184 -50.15625 4.6875 C-38.06913019 -10.42139977 -17.13707154 -3.80823812 0 0 Z " fill="#268BCC" transform="translate(160.15625,28.3125)"/>
<path d="M0 0 C3.37531427 4.00237953 6.04917276 8.22551602 8.75 12.6875 C14.85162678 24.22866507 14.85162678 24.22866507 24.49609375 31.82421875 C26.7269674 32.09220201 28.76363291 32.17601037 31 32 C27.99764638 35.17391668 24.80246358 37.71252601 21.25 40.25 C20.26515625 40.95640625 19.2803125 41.6628125 18.265625 42.390625 C17.51796875 42.92171875 16.7703125 43.4528125 16 44 C15.9175 43.46375 15.835 42.9275 15.75 42.375 C14.13537407 37.2620179 10.34451342 33.08725633 7.1418457 28.84790039 C1.40653458 21.23334682 -3.48795739 13.39058927 -8 5 C-6.20963542 3.99088542 -4.41927083 2.98177083 -2.62890625 1.97265625 C-1.02121854 1.1027487 -1.02121854 1.1027487 0 0 Z " fill="#38A9E1" transform="translate(39,138)"/>
<path d="M0 0 C3.33495476 2.79132577 5.04987443 6.54549433 7.0625 10.3125 C10.56762728 16.73685136 14.43350468 22.70806131 18.81274414 28.56958008 C20.66358734 31.0567781 22.01082549 33.03247646 23 36 C21.87926138 36.83905565 20.75325453 37.67107831 19.625 38.5 C18.99851562 38.9640625 18.37203125 39.428125 17.7265625 39.90625 C16 41 16 41 14 41 C12.3593465 38.99340148 10.8577817 36.99465317 9.375 34.875 C8.93349609 34.25133545 8.49199219 33.6276709 8.03710938 32.98510742 C4.19677129 27.46842032 0.84316463 21.74285732 -2.40625 15.86328125 C-3.98930635 12.92936512 -3.98930635 12.92936512 -6 10 C-5.85359862 5.75435996 -2.6743553 3.01722136 0 0 Z " fill="#31A2DC" transform="translate(80,107)"/>
<path d="M0 0 C2.15148206 2.15148206 2.68499093 3.47208864 3.69921875 6.296875 C4.01834229 7.16707275 4.33746582 8.03727051 4.66625977 8.93383789 C5.17177368 10.32783813 5.17177368 10.32783813 5.6875 11.75 C8.57948349 19.59699109 11.79674699 26.97224565 15.84765625 34.28515625 C17 37 17 37 16.796875 39.2578125 C15.66406792 41.73443975 14.37729989 42.70946578 12 44 C10.02929688 43.87060547 10.02929688 43.87060547 8 43 C6.59960938 40.94970703 6.59960938 40.94970703 5.34375 38.2578125 C4.64572266 36.78054687 4.64572266 36.78054687 3.93359375 35.2734375 C3.46050781 34.23445313 2.98742188 33.19546875 2.5 32.125 C2.02691406 31.1246875 1.55382813 30.124375 1.06640625 29.09375 C-7.30255857 11.15031851 -7.30255857 11.15031851 -6.68774414 6.78076172 C-5.43790795 3.54458664 -2.69846271 2.06690761 0 0 Z " fill="#268BCC" transform="translate(22,99)"/>
<path d="M0 0 C2.475 0.99 2.475 0.99 5 2 C5.64117936 25.75925742 5.64117936 25.75925742 1.00390625 31.44921875 C-1.24874654 33.45034381 -3.57447912 35.21604181 -6 37 C-7.35512102 38.31118365 -8.69526604 39.63866799 -10 41 C-9.88406494 40.35562988 -9.76812988 39.71125977 -9.64868164 39.04736328 C-9.1160195 36.07393196 -8.58923212 33.09948729 -8.0625 30.125 C-7.88009766 29.11179687 -7.69769531 28.09859375 -7.50976562 27.0546875 C-6.64908571 22.17228508 -5.8473644 17.28892871 -5.24609375 12.3671875 C-5.09998657 11.17391846 -5.09998657 11.17391846 -4.95092773 9.95654297 C-4.78116632 7.75939699 -4.78116632 7.75939699 -7 6 C-4.69 4.02 -2.38 2.04 0 0 Z " fill="#43B3E7" transform="translate(215,50)"/>
<path d="M0 0 C2.99815247 2.84559161 5.38538933 5.80180745 7.75 9.1875 C11.51117221 14.4474852 15.6033982 19.2642986 20 24 C17.15063897 27.00765886 14.76488042 29.27845212 11 31 C-7.13307329 10.07974546 -7.13307329 10.07974546 -6.86328125 5.86328125 C-5.45583948 2.8254997 -2.79792289 1.66684768 0 0 Z " fill="#3AABE2" transform="translate(71,141)"/>
<path d="M0 0 C3.12135972 3.73297751 5.74516932 7.65169793 8.25 11.8125 C8.61351563 12.40998047 8.97703125 13.00746094 9.3515625 13.62304688 C10.23747996 15.08014796 11.11918273 16.5398102 12 18 C9.75 20.5 9.75 20.5 7 23 C5.68 23 4.36 23 3 23 C1.24938728 20.7654295 -0.18392109 18.67101256 -1.625 16.25 C-2.21667969 15.29867187 -2.21667969 15.29867187 -2.8203125 14.328125 C-4.69625878 11.28604995 -6.47889177 8.23848849 -8 5 C-6.20963542 3.99088542 -4.41927083 2.98177083 -2.62890625 1.97265625 C-1.02121854 1.1027487 -1.02121854 1.1027487 0 0 Z " fill="#2C9CD8" transform="translate(39,138)"/>
<path d="M0 0 C2.61715838 2.38923768 4.36199113 4.97100751 6.1875 8 C6.71730469 8.86625 7.24710938 9.7325 7.79296875 10.625 C9 13 9 13 9 16 C7.25 17.38671875 7.25 17.38671875 5 18.6875 C3.88625 19.34298828 3.88625 19.34298828 2.75 20.01171875 C2.1725 20.33785156 1.595 20.66398437 1 21 C-0.39533117 18.92796315 -1.76549477 16.84534304 -3.125 14.75 C-3.52332031 14.16347656 -3.92164063 13.57695312 -4.33203125 12.97265625 C-5.4453125 11.234375 -5.4453125 11.234375 -7 8 C-5.98135218 4.08624786 -3.17621779 2.340371 0 0 Z " fill="#2D9DD9" transform="translate(62,126)"/>
</svg>
